<svg xmlns="http://www.w3.org/2000/svg" viewBox="0 0 550 200">
  <title>logo</title>
  <path d="M223.653,63.187c0,11.074,5.854,18.072,16.417,18.072,7.254,0,11.073-2.035,15.654-6.618L264,82.406c-6.618,6.618-12.854,10.054-24.181,10.054-16.163,0-29.018-8.527-29.018-33.09,0-20.872,10.818-32.963,27.363-32.963,17.308,0,27.363,12.727,27.363,31.054v5.726ZM250.888,45.37a13.3,13.3,0,0,0-12.727-8.145,13.477,13.477,0,0,0-12.854,8.145c-1.273,2.928-1.528,4.836-1.655,8.782H252.67A20.377,20.377,0,0,0,250.888,45.37Z" style="fill: #222226"/>
  <path d="M299.375,91.7c-12.344,0-17.69-8.272-17.69-17.817V1.081h12.981V73.115c0,4.964,1.782,7.51,7,7.51h5.726V91.7Z" style="fill: #222226"/>
  <path d="M330.554,63.187c0,11.074,5.854,18.072,16.418,18.072,7.254,0,11.072-2.035,15.654-6.618l8.273,7.765c-6.618,6.618-12.854,10.054-24.181,10.054-16.163,0-29.017-8.527-29.017-33.09,0-20.872,10.817-32.963,27.363-32.963,17.308,0,27.363,12.727,27.363,31.054v5.726ZM357.79,45.37a13.3,13.3,0,0,0-12.727-8.145,13.479,13.479,0,0,0-12.854,8.145c-1.272,2.928-1.527,4.836-1.655,8.782h29.017A20.377,20.377,0,0,0,357.79,45.37Z" style="fill: #222226"/>
  <path d="M468.132,91.7V52.37c0-10.055-5.726-14.381-12.981-14.381-7,0-13.362,4.454-13.362,13.746V91.7H428.807V52.37c0-10.055-5.728-14.381-12.981-14.381s-13.364,4.454-13.364,14.381V91.7H389.481V27.172h12.727v6.491a23.353,23.353,0,0,1,17.181-7.255c8.018,0,14.255,3.182,18.327,9.418,5.218-6.363,11.709-9.418,20.237-9.418,6.618,0,12.472,2.164,16.291,5.854,4.964,4.838,6.871,10.946,6.871,18.2V91.7Z" style="fill: #222226"/>
  <path d="M508.129,63.187c0,11.074,5.854,18.072,16.418,18.072,7.254,0,11.072-2.035,15.654-6.618l8.273,7.765c-6.618,6.618-12.854,10.054-24.181,10.054-16.163,0-29.017-8.527-29.017-33.09,0-20.872,10.817-32.963,27.363-32.963C539.945,26.407,550,39.134,550,57.461v5.726ZM535.364,45.37a13.3,13.3,0,0,0-12.727-8.145,13.479,13.479,0,0,0-12.854,8.145c-1.272,2.928-1.527,4.836-1.655,8.782h29.017A20.377,20.377,0,0,0,535.364,45.37Z" style="fill: #222226"/>
  <path d="M253.435,174.419V135.093c0-10.055-5.728-14.381-12.982-14.381s-13.364,4.454-13.364,14.381v39.327H214.107V109.894h12.727v6.491a23.079,23.079,0,0,1,17.181-7.255c6.617,0,12.09,2.164,15.909,5.854,4.964,4.838,6.491,10.946,6.491,18.2v41.236Z" style="fill: #222226"/>
  <path d="M299.375,174.419c-12.091,0-17.69-8.655-17.69-17.945V99.395h12.981v11.645h12.472v9.927H294.666v34.871c0,4.71,2.29,7.51,7.126,7.51h5.346v11.072Z" style="fill: #222226"/>
  <path d="M360.591,174.419v-5.854c-4.709,4.709-9.163,6.618-17.181,6.618s-13.364-1.909-17.308-5.855a19.8,19.8,0,0,1-5.091-13.872c0-10.819,7.508-18.582,22.272-18.582h17.055v-4.581c0-8.145-4.073-12.091-14.128-12.091-7.126,0-10.563,1.655-14.126,6.236l-8.527-8.018c6.109-7.126,12.472-9.29,23.163-9.29,17.69,0,26.6,7.508,26.6,22.144v43.145Zm-.253-28.509H345.192c-7.637,0-11.582,3.436-11.582,9.292s3.691,9.163,11.836,9.163c4.964,0,8.653-.382,12.09-3.691,1.909-1.908,2.8-4.964,2.8-9.545Z" style="fill: #222226"/>
  <path d="M466.857,109.894l-15.018,45.435-14.1-41.6c-4.792-3.573-9.365-4.6-16.942-4.6-8.945,0-15.282,3.182-18.591,7.763v-7H389.481v64.525h12.981v-39.2c0-8.908,6.891-15.782,15.042-15.782,5.19,0,7.523.845,9.729,2.842l1.012,2.76,16.977,46.325-3.564,10.055c-1.909,5.218-3.819,6.871-9.292,6.871h-3.309V200h5.218c4.964,0,9.672-1.145,13.236-4.709a20.876,20.876,0,0,0,4.709-8.018l28.509-77.379Z" style="fill: #222226"/>
  <circle cx="98.409" cy="98.409" r="98.409" style="fill: #222226"/>
  <path d="M123.771,116.98a29.806,29.806,0,0,1-24.759,13.613c-14.92,0-29.257-11.5-29.911-30.493h62.08V95.984a32.772,32.772,0,1,0-65.543,0v4.469a33.377,33.377,0,0,0,61.316,18.256ZM69.364,93.737C70.5,78.31,83.261,66.225,98.409,66.225s29.126,12.34,29.262,30.447H69.147Z" style="fill: #ff4f49"/>
</svg>
